{"title":"The Lickerish Quartet 1970 720p Brrip x264 SSloco","uid":11984912,"size":785848862,"categoryP":"video","categoryS":"hd___movies","magnet":"?xt=urn:btih:b3d262d75bf350655024760588efae7724558afe&amp;dn=The+Lickerish+Quartet+1970+720p+Brrip+x264+SSloco&amp;tr=udp%3A%2F%2Ftracker.openbittorrent.com%3A80&amp;tr=udp%3A%2F%2Fopen.demonii.com%3A1337&amp;tr=udp%3A%2F%2Ftracker.coppersurfer.tk%3A6969&amp;tr=udp%3A%2F%2Fexodus.desync.com%3A6969","seeders":0,"leechers":0,"uploader":"myhoes14","files":1,"time":1433327871,"description":"Source:The Lickerish Quartet 1970 1080p BluRay x264-BARC0DE\n\nMedia info\n\nFormat : Matroska\nFormat version : Version 4 / Version 2\nFile size : 749 MiB\nDuration : 1h 27mn\nOverall bit rate : 1 194 Kbps\nEncoded date : UTC 2015-03-17 01:53:45\nWriting application : mkvmerge v7.5.0 ('Glass Culture') 64bit built on Jan 4 2015 16:48:44\nWriting library : libebml v1.3.1 + libmatroska v1.4.2\nDURATION : 01:27:46.053000000\nNUMBER_OF_FRAMES : 126259\nNUMBER_OF_BYTES : 658361472\n_STATISTICS_WRITING_APP : mkvmerge v7.5.0 ('Glass Culture') 64bit built on Jan 4 2015 16:48:44\n_STATISTICS_WRITING_DATE_UT : 2015-03-17 01:53:45\n_STATISTICS_TAGS : BPS DURATION NUMBER_OF_FRAMES NUMBER_OF_BYTES\n\nVideo\nID : 2\nFormat : AVC\nFormat/Info : Advanced Video Codec\nFormat profile : &lt;a class=&quot;__cf_email__&quot; href=&quot;/cdn-cgi/l/email-protection&quot; data-cfemail=&quot;236b4a444b636f170d12&quot;&gt;[email&amp;#160;protected]&lt;/a&gt;&lt;script data-cfhash='f9e31' type=&quot;text/javascript&quot;&gt;\n/* &lt;![CDATA[ */!function(){try{var t=&quot;currentScript&quot;in document?document.currentScript:function(){for(var t=document.getElementsByTagName(&quot;script&quot;),e=t.length;e--;)if(t[e].getAttribute(&quot;data-cfhash&quot;))return t[e]}();if(t&amp;&amp;t.previousSibling){var e,r,n,i,c=t.previousSibling,a=c.getAttribute(&quot;data-cfemail&quot;);if(a){for(e=&quot;&quot;,r=parseInt(a.substr(0,2),16),n=2;a.length-n;n+=2)i=parseInt(a.substr(n,2),16)^r,e+=String.fromCharCode(i);e=document.createTextNode(e),c.parentNode.replaceChild(e,c)}t.parentNode.removeChild(t);}}catch(u){}}()/* ]]&gt; */&lt;/script&gt;\nFormat settings, CABAC : Yes\nFormat settings, ReFrames : 4 frames\nCodec ID : V_MPEG4/ISO/AVC\nDuration : 1h 27mn\nBit rate : 1 000 Kbps\nWidth : 1 280 pixels\nHeight : 688 pixels\nDisplay aspect ratio : 1.85:1\nFrame rate mode : Constant\nFrame rate : 23.976 fps\nColor space : YUV\nChroma subsampling : 4:2:0\nBit depth : 8 bits\nScan type : Progressive\nBits/(Pixel*Frame) : 0.047\nStream size : 614 MiB (82%)\nWriting library : x264 core 142 r2431 ac76440\nEncoding settings : cabac=1 / ref=4 / deblock=1:-1:-1 / analyse=0x3:0x133 / me=umh / subme=9 / psy=1 / psy_rd=1.00:0.15 / mixed_ref=1 / me_range=24 / chroma_me=1 / trellis=1 / 8x8dct=1 / cqm=0 / deadzone=21,11 / fast_pskip=1 / chroma_qp_offset=-3 / threads=6 / lookahead_threads=1 / sliced_threads=0 / nr=0 / decimate=1 / interlaced=0 / bluray_compat=0 / constrained_intra=0 / bframes=4 / b_pyramid=2 / b_adapt=2 / b_bias=0 / direct=3 / weightb=1 / open_gop=0 / weightp=2 / keyint=240 / keyint_min=23 / scenecut=40 / intra_refresh=0 / rc_lookahead=60 / rc=2pass / mbtree=1 / bitrate=1000 / ratetol=1.0 / qcomp=0.60 / qpmin=0 / qpmax=69 / qpstep=4 / cplxblur=20.0 / qblur=0.5 / vbv_maxrate=62500 / vbv_bufsize=78125 / nal_hrd=none / filler=0 / ip_ratio=1.40 / aq=1:1.00\nLanguage : English\nDefault : Yes\nForced : No\nColor primaries : BT.709\nMatrix coefficients : BT.709\nColor range : Limited\n_STATISTICS_WRITING_APP : mkvmerge v7.5.0 ('Glass Culture') 64bit built on Jan 4 2015 16:48:44\n_STATISTICS_WRITING_DATE_UT : 2015-03-17 01:53:45\n_STATISTICS_TAGS : BPS DURATION NUMBER_OF_FRAMES NUMBER_OF_BYTES\nDURATION : 01:27:46.112000000\nNUMBER_OF_FRAMES : 164566\nNUMBER_OF_BYTES : 126386688\n\nAudio\nID : 1\nFormat : AC-3\nFormat/Info : Audio Coding 3\nMode extension : CM (complete main)\nFormat settings, Endianness : Big\nCodec ID : A_AC3\nDuration : 1h 27mn\nBit rate mode : Constant\nBit rate : 192 Kbps\nChannel(s) : 2 channels\nChannel positions : Front: L R\nSampling rate : 48.0 KHz\nBit depth : 16 bits\nCompression mode : Lossy\nDelay relative to video : 83ms\nStream size : 121 MiB (16%)\nTitle : Stereo\nLanguage : English\nDefault : Yes\nForced : No\n\nMenu\n00:00:00.000 : :00:00:00.000\n00:08:38.393 : :00:08:38.309\n00:11:03.079 : :00:11:02.954\n00:19:33.756 : :00:19:33.672\n00:26:54.905 : :00:26:54.780\n00:39:52.849 : :00:39:52.765\n00:53:39.967 : :00:53:39.842\n01:05:36.516 : :01:05:36.391\n01:18:30.623 : :01:18:30.539\n01:24:41.243 : :01:24:41.159","torrent":{"xt":"urn:btih:b3d262d75bf350655024760588efae7724558afe","amp;dn":"The+Lickerish+Quartet+1970+720p+Brrip+x264+SSloco","amp;tr":["udp%3A%2F%2Ftracker.openbittorrent.com%3A80","udp%3A%2F%2Fopen.demonii.com%3A1337","udp%3A%2F%2Ftracker.coppersurfer.tk%3A6969","udp%3A%2F%2Fexodus.desync.com%3A6969"],"infoHash":"b3d262d75bf350655024760588efae7724558afe","infoHashBuffer":{"type":"Buffer","data":[179,210,98,215,91,243,80,101,80,36,118,5,136,239,174,119,36,85,138,254]},"announce":[],"urlList":[]}}